Coordinates
version=1
nRows=6
nColumns=63
inDegrees=yes

Units are S.I. units (second, meters, Newtons, ...)
If the header above contains a line with 'inDegrees', this indicates whether rotational values are in degrees (yes) or radians (no).

endheader
time	pelvis_tilt	pelvis_list	pelvis_rotation	pelvis_tx	pelvis_ty	pelvis_tz	hip_flexion_r	hip_adduction_r	hip_rotation_r	knee_angle_r	knee_angle_r_beta	ankle_angle_r	subtalar_angle_r	mtp_angle_r	hip_flexion_l	hip_adduction_l	hip_rotation_l	knee_angle_l	knee_angle_l_beta	ankle_angle_l	subtalar_angle_l	mtp_angle_l	L5_S1_Flex_Ext	L5_S1_Lat_Bending	L5_S1_axial_rotation	L4_L5_Flex_Ext	L4_L5_Lat_Bending	L4_L5_axial_rotation	L3_L4_Flex_Ext	L3_L4_Lat_Bending	L3_L4_axial_rotation	L2_L3_Flex_Ext	L2_L3_Lat_Bending	L2_L3_axial_rotation	L1_L2_Flex_Ext	L1_L2_Lat_Bending	L1_L2_axial_rotation	L1_T12_Flex_Ext	L1_T12_Lat_Bending	L1_T12_axial_rotation	Abs_r3	Abs_r2	Abs_r1	Abs_t1	Abs_t2	neck_flexion	neck_bending	neck_rotation	arm_flex_r	arm_add_r	arm_rot_r	elbow_flex_r	pro_sup_r	wrist_flex_r	wrist_dev_r	arm_flex_l	arm_add_l	arm_rot_l	elbow_flex_l	pro_sup_l	wrist_flex_l	wrist_dev_l
8.272727	-2.714367	-1.090213	111.458205	0.053067	0.476949	0.817170	3.577715	0.189664	-23.677644	12.727528	0.222137	33.342385	9.654071	0.000000	5.630572	-0.668626	-2.148226	11.288648	0.197024	30.337959	16.206130	0.000000	0.024366	0.035776	-2.542589	0.045249	0.047582	-2.701500	0.040030	0.086986	-2.701500	0.027848	0.086986	-2.224765	0.022626	0.072955	-2.065853	0.013923	0.055417	-1.906941	0.174041	0.404706	-14.141115	0.000000	0.000000	7.936210	-1.273381	10.118672	3.653298	-19.407958	22.175278	121.433729	74.390949	1.881884	23.703072	-8.744165	-13.807057	21.602240	74.813771	86.833739	-9.623562	17.189334
8.295455	-2.809669	-1.205253	111.542447	0.052621	0.476809	0.817091	3.503238	0.040156	-23.913599	12.516540	0.218455	33.379145	10.128243	0.000000	5.684181	-0.491704	-2.086004	11.221245	0.195848	30.381582	16.189756	0.000000	0.029577	0.012939	-2.609650	0.054928	0.017209	-2.772753	0.048593	0.031459	-2.772753	0.033804	0.031459	-2.283444	0.027466	0.026385	-2.120341	0.016901	0.020042	-1.957238	0.211269	0.146366	-14.514091	0.000000	0.000000	8.494123	-0.886745	10.005956	3.172106	-19.987474	22.852804	120.212389	72.907392	2.906558	24.345926	-9.452325	-13.779716	20.801387	75.293567	86.764106	-9.165221	16.859717
8.318182	-2.890829	-1.302485	111.663052	0.052057	0.476655	0.816974	3.356898	-0.071465	-24.127525	12.223563	0.213341	33.357830	10.534938	0.000000	5.720648	-0.327238	-1.926626	11.150082	0.194606	30.428907	16.147370	0.000000	0.035020	-0.006543	-2.683859	0.065036	-0.008702	-2.851600	0.057535	-0.015909	-2.851600	0.040025	-0.015909	-2.348376	0.032520	-0.013343	-2.180635	0.020011	-0.010135	-2.012894	0.250146	-0.074018	-14.926816	0.000000	0.000000	9.008233	-0.466192	9.981269	2.700391	-20.639431	23.699328	118.965223	71.251719	3.720117	24.840494	-10.209047	-13.779033	19.999903	75.837232	86.731702	-8.602337	16.262306
8.340909	-2.966525	-1.378375	111.807519	0.051428	0.476495	0.816790	3.128048	-0.142144	-24.264765	11.832292	0.206512	33.263798	10.813928	0.000000	5.729971	-0.171997	-1.679163	11.076240	0.193317	30.455704	16.072801	0.000000	0.041033	-0.023947	-2.761613	0.076202	-0.031849	-2.934213	0.067413	-0.058224	-2.934213	0.046897	-0.058224	-2.416411	0.038103	-0.048832	-2.243810	0.023446	-0.037094	-2.071209	0.293094	-0.270892	-15.359261	0.000000	0.000000	9.479866	-0.032357	10.027471	2.248954	-21.328466	24.666890	117.642647	70.256197	4.389528	25.276365	-10.993952	-13.827201	19.222648	76.454690	86.746888	-7.936170	15.441529
8.363636	-3.007360	-1.442229	111.968153	0.050722	0.476305	0.816578	2.860314	-0.160418	-24.361652	11.387969	0.198758	33.123787	11.006685	0.000000	5.736635	-0.050272	-1.338076	11.003188	0.192042	30.473641	15.977319	0.000000	0.050155	-0.035054	-2.840023	0.093143	-0.046622	-3.017525	0.082400	-0.085230	-3.017525	0.057322	-0.085230	-2.485020	0.046574	-0.071482	-2.307519	0.028659	-0.054299	-2.130017	0.358252	-0.396537	-15.795357	0.000000	0.000000	9.919969	0.397955	10.225125	1.801543	-22.032500	25.637381	116.234859	70.368379	5.156511	25.757201	-11.767179	-13.888154	18.491439	77.065568	86.844899	-7.138902	14.283352
8.386364	-3.039492	-1.488627	112.124610	0.050010	0.476091	0.816306	2.522453	-0.138606	-24.384903	10.851218	0.189389	32.924367	11.125243	0.000000	5.715332	0.056080	-0.935672	10.916437	0.190528	30.466029	15.864442	0.000000	0.059140	-0.044070	-2.913081	0.109828	-0.058613	-3.095149	0.097161	-0.107152	-3.095149	0.067591	-0.107152	-2.548946	0.054917	-0.089868	-2.366879	0.033792	-0.068265	-2.184811	0.422429	-0.498531	-16.201685	0.000000	0.000000	10.400908	0.757597	10.427843	1.350535	-22.714083	26.608418	114.698775	70.828140	5.793069	26.114108	-12.507652	-13.992518	17.851758	77.712831	86.981162	-6.329454	12.994751
